M48
; DRILL file {KiCad 7.0.6} date Sun Oct 15 21:18:16 2023
; FORMAT={-:-/ absolute / metric / decimal}
; #@! TF.CreationDate,2023-10-15T21:18:16+09:00
; #@! TF.GenerationSoftware,Kicad,Pcbnew,7.0.6
; #@! TF.FileFunction,MixedPlating,1,2
FMAT,2
METRIC
; #@! TA.AperFunction,Plated,PTH,ViaDrill
T1C0.400
; #@! TA.AperFunction,Plated,PTH,ComponentDrill
T2C1.000
%
G90
G05
T1
X107.4Y-83.19
X108.9Y-125.69
X114.8Y-86.09
X143.0Y-89.64
X144.3Y-122.69
X144.5Y-111.49
X144.5Y-116.29
X144.6Y-90.29
X144.8Y-94.49
X144.8Y-101.29
X145.8Y-125.89
X146.8Y-90.99
X146.8Y-106.39
X146.9Y-112.59
X147.1Y-94.69
X147.1Y-98.89
X147.1Y-125.29
X147.2Y-116.19
X148.0Y-89.19
X148.2Y-110.69
X148.5Y-107.79
X148.65Y-125.19
X149.4Y-112.69
X149.5Y-90.99
X149.5Y-94.69
X149.6Y-103.39
X149.6Y-116.29
X150.4Y-125.04
X150.75Y-110.84
X151.85Y-112.74
X151.9Y-125.19
X152.1Y-90.29
X152.1Y-116.29
X154.1Y-125.99
X154.4Y-111.89
X154.4Y-116.19
X155.8Y-89.09
X155.9Y-107.79
X156.2Y-125.99
X157.3Y-116.19
X157.35Y-111.89
X159.1Y-125.89
X159.5Y-90.39
X159.5Y-94.69
X159.5Y-107.39
X159.5Y-111.89
X159.5Y-116.19
X183.7Y-91.29
X183.8Y-115.89
X184.4Y-85.99
X184.4Y-89.59
X185.1Y-94.89
X185.2Y-107.19
X185.3Y-111.09
X185.3Y-112.49
X186.6Y-125.89
X188.6Y-83.49
T2
X111.4Y-87.71
X111.4Y-92.79
X111.5Y-109.29
X111.5Y-114.37
X113.94Y-87.71
X113.94Y-92.79
X114.04Y-109.29
X114.04Y-114.37
X116.48Y-87.71
X116.48Y-92.79
X116.58Y-109.29
X116.58Y-114.37
X119.02Y-87.71
X119.02Y-92.79
X119.12Y-109.29
X119.12Y-114.37
X121.56Y-87.71
X121.56Y-92.79
X121.66Y-109.29
X121.66Y-114.37
X124.1Y-87.71
X124.1Y-92.79
X124.2Y-109.29
X124.2Y-114.37
X126.64Y-87.71
X126.64Y-92.79
X126.74Y-109.29
X126.74Y-114.37
X129.18Y-87.71
X129.18Y-92.79
X129.28Y-109.29
X129.28Y-114.37
X131.72Y-87.71
X131.72Y-92.79
X131.82Y-109.29
X131.82Y-114.37
X134.26Y-87.71
X134.26Y-92.79
X134.36Y-109.29
X134.36Y-114.37
X136.8Y-87.71
X136.8Y-92.79
X136.9Y-109.29
X136.9Y-114.37
X139.34Y-87.71
X139.34Y-92.79
X139.44Y-109.29
X139.44Y-114.37
X141.88Y-87.71
X141.88Y-92.79
X141.98Y-109.29
X141.98Y-114.37
X144.42Y-87.71
X144.42Y-92.79
X144.52Y-109.29
X144.52Y-114.37
X146.96Y-87.71
X146.96Y-92.79
X147.06Y-109.29
X147.06Y-114.37
X149.5Y-87.71
X149.5Y-92.79
X149.6Y-109.29
X149.6Y-114.37
X152.04Y-87.71
X152.04Y-92.79
X152.14Y-109.29
X152.14Y-114.37
X154.58Y-87.71
X154.58Y-92.79
X154.68Y-109.29
X154.68Y-114.37
X157.12Y-87.71
X157.12Y-92.79
X157.22Y-109.29
X157.22Y-114.37
X159.66Y-87.71
X159.66Y-92.79
X159.76Y-109.29
X159.76Y-114.37
X162.2Y-87.71
X162.2Y-92.79
X162.3Y-109.29
X162.3Y-114.37
X164.74Y-87.71
X164.74Y-92.79
X164.84Y-109.29
X164.84Y-114.37
X167.28Y-87.71
X167.28Y-92.79
X167.38Y-109.29
X167.38Y-114.37
X169.82Y-87.71
X169.82Y-92.79
X169.92Y-109.29
X169.92Y-114.37
X172.36Y-87.71
X172.36Y-92.79
X172.46Y-109.29
X172.46Y-114.37
X174.9Y-87.71
X174.9Y-92.79
X175.0Y-109.29
X175.0Y-114.37
X177.44Y-87.71
X177.44Y-92.79
X177.54Y-109.29
X177.54Y-114.37
X179.98Y-87.71
X179.98Y-92.79
X180.08Y-109.29
X180.08Y-114.37
X182.52Y-87.71
X182.52Y-92.79
X182.62Y-109.29
X182.62Y-114.37
X185.06Y-87.71
X185.06Y-92.79
X185.16Y-109.29
X185.16Y-114.37
T0
M30
