G04 #@! TF.GenerationSoftware,KiCad,Pcbnew,7.0.6*
G04 #@! TF.CreationDate,2023-10-15T21:53:03+09:00*
G04 #@! TF.ProjectId,NES_MAmi_Ext,4e45535f-4d41-46d6-995f-4578742e6b69,rev?*
G04 #@! TF.SameCoordinates,Original*
G04 #@! TF.FileFunction,Soldermask,Top*
G04 #@! TF.FilePolarity,Negative*
%FSLAX46Y46*%
G04 Gerber Fmt 4.6, Leading zero omitted, Abs format (unit mm)*
G04 Created by KiCad (PCBNEW 7.0.6) date 2023-10-15 21:53:03*
%MOMM*%
%LPD*%
G01*
G04 APERTURE LIST*
%ADD10C,0.100000*%
%ADD11C,1.700000*%
%ADD12R,1.700000X9.300000*%
G04 APERTURE END LIST*
G04 #@! TO.C,MAMICART1*
D10*
X187400000Y-137758800D02*
X109400000Y-137758800D01*
X109400000Y-126789800D01*
X187400000Y-126789800D01*
X187400000Y-137758800D01*
G36*
X187400000Y-137758800D02*
G01*
X109400000Y-137758800D01*
X109400000Y-126789800D01*
X187400000Y-126789800D01*
X187400000Y-137758800D01*
G37*
G04 #@! TD*
D11*
G04 #@! TO.C,VRC_CART2*
X111500000Y-114369800D03*
X114040000Y-114369800D03*
X116580000Y-114369800D03*
X119120000Y-114369800D03*
X121660000Y-114369800D03*
X124200000Y-114369800D03*
X126740000Y-114369800D03*
X129280000Y-114369800D03*
X131820000Y-114369800D03*
X134360000Y-114369800D03*
X136900000Y-114369800D03*
X139440000Y-114369800D03*
X141980000Y-114369800D03*
X144520000Y-114369800D03*
X147060000Y-114369800D03*
X149600000Y-114369800D03*
X152140000Y-114369800D03*
X154680000Y-114369800D03*
X157220000Y-114369800D03*
X159760000Y-114369800D03*
X162300000Y-114369800D03*
X164840000Y-114369800D03*
X167380000Y-114369800D03*
X169920000Y-114369800D03*
X172460000Y-114369800D03*
X175000000Y-114369800D03*
X177540000Y-114369800D03*
X180080000Y-114369800D03*
X182620000Y-114369800D03*
X185160000Y-114369800D03*
X111500000Y-109289800D03*
X114040000Y-109289800D03*
X116580000Y-109289800D03*
X119120000Y-109289800D03*
X121660000Y-109289800D03*
X124200000Y-109289800D03*
X126740000Y-109289800D03*
X129280000Y-109289800D03*
X131820000Y-109289800D03*
X134360000Y-109289800D03*
X136900000Y-109289800D03*
X139440000Y-109289800D03*
X141980000Y-109289800D03*
X144520000Y-109289800D03*
X147060000Y-109289800D03*
X149600000Y-109289800D03*
X152140000Y-109289800D03*
X154680000Y-109289800D03*
X157220000Y-109289800D03*
X159760000Y-109289800D03*
X162300000Y-109289800D03*
X164840000Y-109289800D03*
X167380000Y-109289800D03*
X169920000Y-109289800D03*
X172460000Y-109289800D03*
X175000000Y-109289800D03*
X177540000Y-109289800D03*
X180080000Y-109289800D03*
X182620000Y-109289800D03*
X185160000Y-109289800D03*
G04 #@! TD*
D12*
G04 #@! TO.C,MAMICART1*
X111570000Y-131789800D03*
X114110000Y-131789800D03*
X116650000Y-131789800D03*
X119190000Y-131789800D03*
X121730000Y-131789800D03*
X124270000Y-131789800D03*
X126810000Y-131789800D03*
X129350000Y-131789800D03*
X131890000Y-131789800D03*
X134430000Y-131789800D03*
X136970000Y-131789800D03*
X139510000Y-131789800D03*
X142050000Y-131789800D03*
X144590000Y-131789800D03*
X147130000Y-131789800D03*
X149670000Y-131789800D03*
X152210000Y-131789800D03*
X154750000Y-131789800D03*
X157290000Y-131789800D03*
X159830000Y-131789800D03*
X162370000Y-131789800D03*
X164910000Y-131789800D03*
X167450000Y-131789800D03*
X169990000Y-131789800D03*
X172530000Y-131789800D03*
X175070000Y-131789800D03*
X177610000Y-131789800D03*
X180150000Y-131789800D03*
X182690000Y-131789800D03*
X185230000Y-131789800D03*
G04 #@! TD*
D11*
G04 #@! TO.C,VRC_CART1*
X111400000Y-92789800D03*
X113940000Y-92789800D03*
X116480000Y-92789800D03*
X119020000Y-92789800D03*
X121560000Y-92789800D03*
X124100000Y-92789800D03*
X126640000Y-92789800D03*
X129180000Y-92789800D03*
X131720000Y-92789800D03*
X134260000Y-92789800D03*
X136800000Y-92789800D03*
X139340000Y-92789800D03*
X141880000Y-92789800D03*
X144420000Y-92789800D03*
X146960000Y-92789800D03*
X149500000Y-92789800D03*
X152040000Y-92789800D03*
X154580000Y-92789800D03*
X157120000Y-92789800D03*
X159660000Y-92789800D03*
X162200000Y-92789800D03*
X164740000Y-92789800D03*
X167280000Y-92789800D03*
X169820000Y-92789800D03*
X172360000Y-92789800D03*
X174900000Y-92789800D03*
X177440000Y-92789800D03*
X179980000Y-92789800D03*
X182520000Y-92789800D03*
X185060000Y-92789800D03*
X111400000Y-87709800D03*
X113940000Y-87709800D03*
X116480000Y-87709800D03*
X119020000Y-87709800D03*
X121560000Y-87709800D03*
X124100000Y-87709800D03*
X126640000Y-87709800D03*
X129180000Y-87709800D03*
X131720000Y-87709800D03*
X134260000Y-87709800D03*
X136800000Y-87709800D03*
X139340000Y-87709800D03*
X141880000Y-87709800D03*
X144420000Y-87709800D03*
X146960000Y-87709800D03*
X149500000Y-87709800D03*
X152040000Y-87709800D03*
X154580000Y-87709800D03*
X157120000Y-87709800D03*
X159660000Y-87709800D03*
X162200000Y-87709800D03*
X164740000Y-87709800D03*
X167280000Y-87709800D03*
X169820000Y-87709800D03*
X172360000Y-87709800D03*
X174900000Y-87709800D03*
X177440000Y-87709800D03*
X179980000Y-87709800D03*
X182520000Y-87709800D03*
X185060000Y-87709800D03*
G04 #@! TD*
M02*
